# xmcd
#
# Track frame offsets:
#	150
#	7438
#	16084
#	25452
#	37794
#	50890
#	58972
#	76738
#	86020
#	97202
#	110784
#	121146
#	132310
#	144886
#
# Disc length: 2105 seconds
#
# Revision: 0
# Processed by: cddbd v1.5.2PL0 Copyright (c) Steve Scherf et al.
# Submitted via: EasyCDDAExtractor 2011.3.0.0
#
DISCID=c008370e
DTITLE=Various Artist - Western Panorama Vol 2
DYEAR=1971
DGENRE=Country and Western
TTITLE0=The Green River Boys and Glen Campbell - Kentucky Means Paradise
TTITLE1=Buck Owens - Love's Gonna Live Here
TTITLE2=Merle Travis - Saturday's Night Shuffle
TTITLE3=Roy Acuff and His Smoky Mountain Boys - Wabash Cannon Ball
TTITLE4=Cliffie Stone and His Square-Dance Band - Bake Hot Cakes Brown
TTITLE5=The Green River Boys and Glen Campbell - Divorce Me C.O.D.
TTITLE6=Tex Ritter - When The Work's All Done This Fall
TTITLE7=Earl Taylor and His Blue-Grass Mountaineers - Shuckin' The Corn
TTITLE8=Tommy Collins - If I Could Just Go Back
TTITLE9=The Green River Boys and Glen Campbell - Long Black Limousine
TTITLE10=Buck Owens - Act Naturally
TTITLE11=Rose Maddox - Down To The River
TTITLE12=Tex Ritter - Rye Whiskey
TTITLE13=Cliffie Stone and His Square-Dance Band - Ragtime Annie
EXTD=
EXTT0=
EXTT1=
EXTT2=
EXTT3=
EXTT4=
EXTT5=
EXTT6=
EXTT7=
EXTT8=
EXTT9=
EXTT10=
EXTT11=
EXTT12=
EXTT13=
PLAYORDER=
